<?xml version="1.0" encoding="UTF-8" standalone="no"?>
<svg
   viewBox="0 0 160 100"
   width="160"
   height="100"
   version="1.1"
   id="svg2"
   sodipodi:docname="stationarity.svg"
   inkscape:version="1.4.4 (dcaf3e7, 2026-05-05)"
   xmlns:inkscape="http://www.inkscape.org/namespaces/inkscape"
   xmlns:sodipodi="http://sodipodi.sourceforge.net/DTD/sodipodi-0.dtd"
   xmlns="http://www.w3.org/2000/svg"
   xmlns:svg="http://www.w3.org/2000/svg">
  <defs
     id="defs2" />
  <sodipodi:namedview
     id="namedview2"
     pagecolor="#ffffff"
     bordercolor="#000000"
     borderopacity="0.25"
     inkscape:showpageshadow="2"
     inkscape:pageopacity="0.0"
     inkscape:pagecheckerboard="0"
     inkscape:deskcolor="#d1d1d1"
     inkscape:zoom="3.7741824"
     inkscape:cx="92.470357"
     inkscape:cy="57.628375"
     inkscape:window-width="1920"
     inkscape:window-height="1022"
     inkscape:window-x="0"
     inkscape:window-y="152"
     inkscape:window-maximized="1"
     inkscape:current-layer="svg2" />
  <path
     d="M14 48.17 L 17.16 58.24 L 20.32 54.65 L 23.47 56.29 L 26.63 52.15 L 29.79 57.09 L 32.95 55.4 L 36.11 61.41 L 39.26 49.66 L 42.42 47.24 L 45.58 52.17 L 48.74 58.71 L 51.89 52.26 L 55.05 60 L 58.21 53.61 L 61.37 47.76 L 64.53 46.98 L 67.68 52.68 L 70.84 46.47 L 74 49.13"
     fill="none"
     stroke="#2075c4"
     stroke-width="1.35"
     stroke-linejoin="round"
     stroke-linecap="round"
     stroke-opacity="0.9"
     id="path1" />
  <line
     x1="80"
     y1="20"
     x2="80"
     y2="86"
     stroke="#d2d5d9"
     stroke-width="1"
     id="line1" />
  <path
     d="m 86,57.03 2.86,5.83 2.85,-8.06 2.92624,-7.976011 L 97.43,53.5 l 2.86,-2.18 3.44616,5.329329 L 106,49.41 109.14103,50.808103 111.71,42.76 114.38265,40.535433 117.43,49.28 l 2.86,-2.01 2.85,0.23 2.86,-9.4 2.86,3.42 2.94368,-5.866604 L 134.57,45.240281 137.43,34.17 139.44691,30.558829 143.14,41.94 146,28.131808"
     fill="none"
     stroke="#c0453f"
     stroke-width="1.35"
     stroke-linejoin="round"
     stroke-linecap="round"
     stroke-opacity="0.9"
     id="path2"
     sodipodi:nodetypes="cccccccccccccccccccccc" />
</svg>
