<?xml version="1.0" encoding="UTF-8" standalone="no"?>
<!-- Created with Inkscape (http://www.inkscape.org/) -->

<svg
   width="209.56956mm"
   height="65.210869mm"
   viewBox="0 0 209.56956 65.21087"
   version="1.1"
   id="svg1"
   xml:space="preserve"
   xmlns="http://www.w3.org/2000/svg"
   xmlns:svg="http://www.w3.org/2000/svg"><defs
     id="defs1"><rect
       x="69.547417"
       y="296.49161"
       width="166.75111"
       height="121.19959"
       id="rect2" /><rect
       x="69.547417"
       y="296.49161"
       width="166.75111"
       height="121.19959"
       id="rect2-0" /><rect
       x="69.547417"
       y="296.49161"
       width="166.75111"
       height="121.19959"
       id="rect2-0-1" /><rect
       x="69.547417"
       y="296.49161"
       width="166.75111"
       height="121.19959"
       id="rect2-0-1-3" /></defs><g
     id="layer1"
     transform="translate(0,-112.98913)"><path
       style="fill:none;fill-opacity:1;stroke:#727272;stroke-width:1.352;stroke-dasharray:none;stroke-opacity:0.917647"
       d="m 17.08892,144.4911 c 3.373226,2.48553 12.006988,-26.48653 20.499955,-24.41976 11.516429,2.80253 23.03205,48.81586 28.932981,47.84809 6.83307,-1.12065 5.602532,-17.9666 13.759385,-19.98037 3.000394,-0.74075 6.142947,2.30489 9.346119,2.94367 2.949167,0.58812 6.122592,-0.11993 8.986366,0.79783 3.160554,1.01286 5.306004,4.51653 8.582044,5.0481 2.66899,0.43308 5.31413,-2.80393 7.93349,-1.69088 4.02158,1.7089 12.38604,22.05464 16.81225,21.64514 5.16012,-0.4774 9.16463,-37.57495 21.00107,-48.24159 1.99559,-1.79837 5.32786,1.41377 8.46101,0.1676 26.86664,-10.68592 19.97502,16.06771 34.30204,15.20275"
       id="path1" /><path
       style="fill:none;fill-opacity:1;stroke:#1f75c3;stroke-width:1.352;stroke-dasharray:2.704, 2.704;stroke-dashoffset:0;stroke-opacity:0.839216"
       d="M 14.609441,133.31115 H 54.785402"
       id="path2" /><path
       style="fill:none;fill-opacity:1;stroke:#1f75c3;stroke-width:1.352;stroke-dasharray:2.704, 2.704;stroke-dashoffset:0;stroke-opacity:0.839216"
       d="M 59.606613,155.00906 H 99.782576"
       id="path2-4" /><path
       style="fill:none;fill-opacity:1;stroke:#1f75c3;stroke-width:1.352;stroke-dasharray:2.704, 2.704;stroke-dashoffset:0;stroke-opacity:0.839216"
       d="m 103.9269,159.62346 h 40.17596"
       id="path2-7" /><path
       style="fill:none;fill-opacity:1;stroke:#1f75c3;stroke-width:1.352;stroke-dasharray:2.704, 2.704;stroke-dashoffset:0;stroke-opacity:0.839216"
       d="m 148.8878,131.94032 h 40.17596"
       id="path2-47" /><text
       xml:space="preserve"
       transform="matrix(0.46733797,0,0,0.46733797,-18.918788,-25.680091)"
       id="text2"
       style="font-size:43.04px;font-family:Arial;-inkscape-font-specification:Arial;text-align:start;writing-mode:lr-tb;direction:ltr;white-space:pre;shape-inside:url(#rect2);display:inline;fill:#2075c3;fill-opacity:0.839216;stroke:#000000;stroke-width:1.33039;stroke-dasharray:none;stroke-dashoffset:0;stroke-opacity:1"><tspan
         x="69.546875"
         y="335.26066"
         id="tspan5"><tspan
           style="stroke:none"
           id="tspan4">d</tspan></tspan></text><text
       xml:space="preserve"
       transform="matrix(0.46733797,0,0,0.46733797,29.264299,-4.3455955)"
       id="text2-2"
       style="font-size:43.04px;font-family:Arial;-inkscape-font-specification:Arial;text-align:start;writing-mode:lr-tb;direction:ltr;white-space:pre;shape-inside:url(#rect2-0);display:inline;fill:#1f75c3;fill-opacity:0.839216;stroke:none;stroke-width:1.33039;stroke-dasharray:none;stroke-dashoffset:0;stroke-opacity:1"><tspan
         x="69.546875"
         y="335.26066"
         id="tspan6">b</tspan></text><text
       xml:space="preserve"
       transform="matrix(0.46733797,0,0,0.46733797,90.052507,0.55762729)"
       id="text2-2-5"
       style="font-size:43.04px;font-family:Arial;-inkscape-font-specification:Arial;text-align:start;writing-mode:lr-tb;direction:ltr;white-space:pre;shape-inside:url(#rect2-0-1);display:inline;fill:#1f75c3;fill-opacity:0.839216;stroke:none;stroke-width:1.33039;stroke-dasharray:none;stroke-dashoffset:0;stroke-opacity:1"><tspan
         x="69.546875"
         y="335.26066"
         id="tspan7">a</tspan></text><text
       xml:space="preserve"
       transform="matrix(0.46733797,0,0,0.46733797,151.35175,-28.110732)"
       id="text2-2-5-7"
       style="font-size:43.04px;font-family:Arial;-inkscape-font-specification:Arial;text-align:start;writing-mode:lr-tb;direction:ltr;white-space:pre;shape-inside:url(#rect2-0-1-3);display:inline;fill:#1f75c3;fill-opacity:0.839216;stroke:none;stroke-width:1.33039;stroke-dasharray:none;stroke-dashoffset:0;stroke-opacity:1"><tspan
         x="69.546875"
         y="335.26066"
         id="tspan8">d</tspan></text></g></svg>
