<?xml version="1.0" encoding="UTF-8" standalone="no"?>
<svg
   viewBox="0 0 160 100"
   width="160"
   height="100"
   version="1.1"
   id="svg6"
   sodipodi:docname="symbolic.svg"
   xml:space="preserve"
   inkscape:version="1.4.4 (dcaf3e7, 2026-05-05)"
   xmlns:inkscape="http://www.inkscape.org/namespaces/inkscape"
   xmlns:sodipodi="http://sodipodi.sourceforge.net/DTD/sodipodi-0.dtd"
   xmlns="http://www.w3.org/2000/svg"
   xmlns:svg="http://www.w3.org/2000/svg"><defs
     id="defs6"><rect
       x="69.547417"
       y="296.49161"
       width="166.75111"
       height="121.19959"
       id="rect2" /><rect
       x="69.547417"
       y="296.49161"
       width="166.75111"
       height="121.19959"
       id="rect2-0" /><rect
       x="69.547417"
       y="296.49161"
       width="166.75111"
       height="121.19959"
       id="rect2-0-1" /><rect
       x="69.547417"
       y="296.49161"
       width="166.75111"
       height="121.19959"
       id="rect2-0-1-3" /><rect
       x="69.547417"
       y="296.49161"
       width="166.75111"
       height="121.19959"
       id="rect2-0-1-39" /><rect
       x="69.547417"
       y="296.49161"
       width="166.75111"
       height="121.19959"
       id="rect7" /><rect
       x="69.547417"
       y="296.49161"
       width="166.75111"
       height="121.19959"
       id="rect8" /></defs><sodipodi:namedview
     id="namedview6"
     pagecolor="#ffffff"
     bordercolor="#000000"
     borderopacity="0.25"
     inkscape:showpageshadow="2"
     inkscape:pageopacity="0.0"
     inkscape:pagecheckerboard="0"
     inkscape:deskcolor="#d1d1d1"
     inkscape:zoom="1.8870912"
     inkscape:cx="-17.487231"
     inkscape:cy="21.991518"
     inkscape:window-width="1920"
     inkscape:window-height="1022"
     inkscape:window-x="0"
     inkscape:window-y="152"
     inkscape:window-maximized="1"
     inkscape:current-layer="layer1-48" /><line
     x1="10"
     y1="38"
     x2="150"
     y2="38"
     stroke="#c8ccd1"
     stroke-width="1"
     stroke-dasharray="2 3"
     id="line1"
     style="stroke:#8dc0ed;stroke-opacity:0.8392157" /><line
     x1="10"
     y1="52"
     x2="150"
     y2="52"
     stroke="#c8ccd1"
     stroke-width="1"
     stroke-dasharray="2 3"
     id="line2"
     style="stroke:#8dc0ed;stroke-opacity:0.8392157" /><line
     x1="10"
     y1="66"
     x2="150"
     y2="66"
     stroke="#c8ccd1"
     stroke-width="1"
     stroke-dasharray="2 3"
     id="line3"
     style="stroke:#8dc0ed;stroke-opacity:0.8392157" /><path
     d="m 10,44.11 c 0,0 3.72786,-6.518928 7,-7.57 2.268055,-0.728541 4.724384,0.735431 7,1.44 2.417554,0.748515 4.478379,2.724886 7,2.94 2.386337,0.203573 4.710398,-0.917314 7,-1.62 2.390827,-0.733752 4.512786,-2.961176 7,-2.7 2.769525,0.290821 5.130441,2.496122 7,4.56 3.401094,3.754599 4.672094,8.990521 7,13.49 2.338789,4.520515 3.745272,9.656979 7,13.57 1.259497,1.51424 2.714959,3.381109 4.67,3.62 1.6858,0.205992 3.337814,-0.994082 4.66,-2.06 3.083207,-2.485615 4.543066,-6.49389 7,-9.6 2.224827,-2.812674 3.969913,-6.251782 7,-8.17 2.043563,-1.293692 4.622386,-1.466444 7,-1.91 2.305862,-0.43017 4.85898,0.238163 7,-0.72 2.88167,-1.289624 4.93289,-3.993744 7,-6.38 2.7216,-3.141801 4.03499,-7.406799 7,-10.32 1.9877,-1.952961 4.23541,-4.91929 7,-4.57 3.42917,0.433256 5.07698,4.777904 7,7.65 3.05468,4.562267 4.33302,10.110774 7,14.91 2.08251,3.747479 7,10.79 7,10.79 l 4.67,1.73"
     fill="none"
     stroke="#727272"
     stroke-width="1.5"
     stroke-linejoin="round"
     stroke-linecap="round"
     id="path3"
     sodipodi:nodetypes="caaaaaaaaaaaaaaaaaaacc" /><g
     id="layer1-48"
     transform="matrix(1.5513113,0,0,1.5513113,-55.769739,-45.106489)"
     style="stroke-width:1.28457;stroke-dasharray:none"><path
       style="fill:none;fill-opacity:1;stroke:#727272;stroke-width:1.59581;stroke-dasharray:none;stroke-opacity:0.917647"
       d="m 17.08892,144.4911 c 3.373226,2.48553 12.006988,-26.48653 20.499955,-24.41976 11.516429,2.80253 23.03205,48.81586 28.932981,47.84809 6.83307,-1.12065 5.602532,-17.9666 13.759385,-19.98037 3.000394,-0.74075 6.142947,2.30489 9.346119,2.94367 2.949167,0.58812 6.122592,-0.11993 8.986366,0.79783 3.160554,1.01286 5.306004,4.51653 8.582044,5.0481 2.66899,0.43308 5.31413,-2.80393 7.93349,-1.69088 4.02158,1.7089 12.38604,22.05464 16.81225,21.64514 5.16012,-0.4774 9.16463,-37.57495 21.00107,-48.24159 1.99559,-1.79837 5.32786,1.41377 8.46101,0.1676 26.86664,-10.68592 19.97502,16.06771 34.30204,15.20275"
       id="path1" /><path
       style="fill:none;fill-opacity:1;stroke:#1f75c3;stroke-width:1.352;stroke-dasharray:2.704, 2.704;stroke-dashoffset:0;stroke-opacity:0.839216"
       d="M 14.609441,133.31115 H 54.785402"
       id="path2" /><path
       style="fill:none;fill-opacity:1;stroke:#1f75c3;stroke-width:1.352;stroke-dasharray:2.704, 2.704;stroke-dashoffset:0;stroke-opacity:0.839216"
       d="M 59.606613,155.00906 H 99.782576"
       id="path2-4" /><path
       style="fill:none;fill-opacity:1;stroke:#1f75c3;stroke-width:1.352;stroke-dasharray:2.704, 2.704;stroke-dashoffset:0;stroke-opacity:0.839216"
       d="m 103.9269,159.62346 h 40.17596"
       id="path2-7" /><path
       style="fill:none;fill-opacity:1;stroke:#1f75c3;stroke-width:1.352;stroke-dasharray:2.704, 2.704;stroke-dashoffset:0;stroke-opacity:0.839216"
       d="m 148.8878,131.94032 h 40.17596"
       id="path2-47" /><text
       xml:space="preserve"
       transform="matrix(0.46733797,0,0,0.46733797,-18.918788,-25.680091)"
       id="text2"
       style="font-size:43.04px;font-family:Arial;-inkscape-font-specification:Arial;text-align:start;writing-mode:lr-tb;direction:ltr;white-space:pre;shape-inside:url(#rect2);display:inline;fill:#2075c3;fill-opacity:0.839216;stroke:#000000;stroke-width:1.33039;stroke-dasharray:none;stroke-dashoffset:0;stroke-opacity:1"><tspan
         x="69.546875"
         y="335.26066"
         id="tspan9"><tspan
           style="stroke:none"
           id="tspan6">d</tspan></tspan></text><text
       xml:space="preserve"
       transform="matrix(0.46733797,0,0,0.46733797,29.264299,-4.3455955)"
       id="text2-2"
       style="font-size:43.04px;font-family:Arial;-inkscape-font-specification:Arial;text-align:start;writing-mode:lr-tb;direction:ltr;white-space:pre;shape-inside:url(#rect2-0);display:inline;fill:#1f75c3;fill-opacity:0.839216;stroke:none;stroke-width:1.33039;stroke-dasharray:none;stroke-dashoffset:0;stroke-opacity:1"><tspan
         x="69.546875"
         y="335.26066"
         id="tspan10">b</tspan></text><text
       xml:space="preserve"
       transform="matrix(0.46733797,0,0,0.46733797,90.052507,0.55762729)"
       id="text2-2-5"
       style="font-size:43.04px;font-family:Arial;-inkscape-font-specification:Arial;text-align:start;writing-mode:lr-tb;direction:ltr;white-space:pre;shape-inside:url(#rect2-0-1);display:inline;fill:#1f75c3;fill-opacity:0.839216;stroke:none;stroke-width:1.33039;stroke-dasharray:none;stroke-dashoffset:0;stroke-opacity:1"><tspan
         x="69.546875"
         y="335.26066"
         id="tspan11">a</tspan></text><text
       xml:space="preserve"
       transform="matrix(0.28795594,0,0,0.28795594,30.885975,-45.242086)"
       id="text2-2-5-9"
       style="font-size:43.04px;font-family:Arial;-inkscape-font-specification:Arial;text-align:start;writing-mode:lr-tb;direction:ltr;white-space:pre;shape-inside:url(#rect2-0-1-39);display:inline;fill:#1f75c3;fill-opacity:0.839216;stroke:none;stroke-width:1.33039;stroke-dasharray:none;stroke-dashoffset:0;stroke-opacity:1"><tspan
         x="69.546875"
         y="335.26066"
         id="tspan12">a</tspan></text><text
       xml:space="preserve"
       transform="matrix(0.46733797,0,0,0.46733797,151.35175,-28.110732)"
       id="text2-2-5-7"
       style="font-size:43.04px;font-family:Arial;-inkscape-font-specification:Arial;text-align:start;writing-mode:lr-tb;direction:ltr;white-space:pre;shape-inside:url(#rect2-0-1-3);display:inline;fill:#1f75c3;fill-opacity:0.839216;stroke:none;stroke-width:1.33039;stroke-dasharray:none;stroke-dashoffset:0;stroke-opacity:1"><tspan
         x="69.546875"
         y="335.26066"
         id="tspan13">d</tspan></text><text
       xml:space="preserve"
       transform="matrix(0.28795594,0,0,0.28795594,56.505402,-34.823519)"
       id="text7"
       style="font-size:43.04px;font-family:Arial;-inkscape-font-specification:Arial;text-align:start;writing-mode:lr-tb;direction:ltr;white-space:pre;shape-inside:url(#rect7);display:inline;fill:#1f75c3;fill-opacity:0.839216;stroke:none;stroke-width:1.33039;stroke-dasharray:none;stroke-dashoffset:0;stroke-opacity:1"><tspan
         x="69.546875"
         y="335.26066"
         id="tspan14">b</tspan></text><text
       xml:space="preserve"
       transform="matrix(0.28795594,0,0,0.28795594,77.214439,-25.771321)"
       id="text8"
       style="font-size:43.04px;font-family:Arial;-inkscape-font-specification:Arial;text-align:start;writing-mode:lr-tb;direction:ltr;white-space:pre;shape-inside:url(#rect8);display:inline;fill:#1f75c3;fill-opacity:0.839216;stroke:none;stroke-width:1.33039;stroke-dasharray:none;stroke-dashoffset:0;stroke-opacity:1"><tspan
         x="69.546875"
         y="335.26066"
         id="tspan15">c</tspan></text></g></svg>
